<?xml version="1.0" encoding="UTF-8"?>
<svg width="20" id="Capa_2" data-name="Capa 2" xmlns="http://www.w3.org/2000/svg" viewBox="0 0 20 17">
  <defs>
    <style>
      .cls-1 {
        fill: #fff;
      }
    </style>
  </defs>
  <g id="Capa_1-2" data-name="Capa 1">
    <path class="cls-1" d="m19,3c.27,0,.52.11.71.29.19.19.29.44.29.71s-.11.52-.29.71c-.19.19-.44.29-.71.29v10c.27,0,.52.11.71.29s.29.44.29.71-.11.52-.29.71-.44.29-.71.29H1c-.27,0-.52-.11-.71-.29-.19-.19-.29-.44-.29-.71s.11-.52.29-.71c.19-.19.44-.29.71-.29V5c-.27,0-.52-.11-.71-.29-.19-.19-.29-.44-.29-.71s.11-.52.29-.71c.19-.19.44-.29.71-.29h18ZM5,7c-.27,0-.52.11-.71.29-.19.19-.29.44-.29.71v7h2v-7c0-.27-.11-.52-.29-.71-.19-.19-.44-.29-.71-.29Zm5,0c-.27,0-.52.11-.71.29-.19.19-.29.44-.29.71v7h2v-7c0-.27-.11-.52-.29-.71-.19-.19-.44-.29-.71-.29Zm5,0c-.27,0-.52.11-.71.29-.19.19-.29.44-.29.71v7h2v-7c0-.27-.11-.52-.29-.71-.19-.19-.44-.29-.71-.29Zm1-7c.27,0,.52.11.71.29.19.19.29.44.29.71s-.11.52-.29.71c-.19.19-.44.29-.71.29H4c-.27,0-.52-.11-.71-.29-.19-.19-.29-.44-.29-.71s.11-.52.29-.71c.19-.19.44-.29.71-.29h12Z"/>
  </g>
</svg>