
<svg width="20"  viewBox="0 0 19.99 16">
    <path  fill="#fff" class="cls-1" d="m13.24,7.6c-1.39.81-2.24,2.29-2.24,3.9,0,3.46,3.74,5.62,6.74,3.89,1.39-.8,2.25-2.29,2.25-3.89,0-3.47-3.75-5.63-6.75-3.9Zm4.47,4.33h-1.78v1.79c0,.27-.23.5-.5.5s-.5-.23-.5-.5v-1.79h-1.79c-.28,0-.5-.22-.5-.5s.22-.5.5-.5h1.79v-1.79c0-.27.22-.5.5-.5s.5.23.5.5v1.79h1.78c.28,0,.5.22.5.5s-.22.5-.5.5Zm-5.72-4.67V1.5c0-.83-.67-1.5-1.49-1.5H1.5C.67,0,0,.67,0,1.5v13c0,.82.67,1.5,1.5,1.5h3v-2.5c0-.83.67-1.5,1.5-1.5s1.5.67,1.5,1.5v2.5h3c.47,0,.89-.22,1.16-.56-1.03-1-1.66-2.4-1.66-3.94,0-1.71.77-3.24,1.99-4.24Zm-7.99,1.24c0,.27-.23.5-.5.5h-1c-.28,0-.5-.23-.5-.5v-1c0-.28.22-.5.5-.5h1c.27,0,.5.22.5.5v1Zm0-4c0,.27-.23.5-.5.5h-1c-.28,0-.5-.23-.5-.5v-1c0-.27.22-.5.5-.5h1c.27,0,.5.23.5.5v1Zm3,4c0,.27-.23.5-.5.5h-1c-.28,0-.5-.23-.5-.5v-1c0-.28.22-.5.5-.5h1c.27,0,.5.22.5.5v1Zm0-4c0,.27-.23.5-.5.5h-1c-.28,0-.5-.23-.5-.5v-1c0-.27.22-.5.5-.5h1c.27,0,.5.23.5.5v1Zm3,4c0,.27-.23.5-.5.5h-1c-.28,0-.5-.23-.5-.5v-1c0-.28.22-.5.5-.5h1c.27,0,.5.22.5.5v1Zm0-4c0,.27-.23.5-.5.5h-1c-.28,0-.5-.23-.5-.5v-1c0-.27.22-.5.5-.5h1c.27,0,.5.23.5.5v1Z"/>
  
</svg>