
<svg width="20" id="Capa_2" data-name="Capa 2" xmlns="http://www.w3.org/2000/svg" viewBox="0 0 13.6 17">
  <defs>
    <style>
      .cls-1 {
        fill: #0c2b82;
        fill-rule: evenodd;
      }
    </style>
  </defs>
  <g id="Capa_2-2" data-name="Capa 2">
    <path class="cls-1" d="m6.8,0v5.53c0,.34.13.66.37.9s.56.37.9.37h5.53v8.5c0,.45-.18.88-.5,1.2s-.75.5-1.2.5H1.7c-.45,0-.88-.18-1.2-.5-.32-.32-.5-.75-.5-1.2V1.7c0-.45.18-.88.5-1.2.32-.32.75-.5,1.2-.5h5.1Zm0,7.65c-.23,0-.44.09-.6.25-.16.16-.25.38-.25.6v2.3l-.35-.35c-.16-.15-.38-.24-.6-.24-.22,0-.44.09-.59.25-.16.16-.25.37-.25.59,0,.22.08.44.24.6l1.8,1.8c.08.08.17.14.28.18.1.04.21.06.33.06s.22-.02.33-.06c.1-.04.2-.11.28-.18l1.8-1.8c.08-.08.15-.17.19-.28.04-.1.07-.22.07-.33,0-.11-.02-.22-.06-.33-.04-.1-.11-.2-.19-.28-.08-.08-.17-.14-.28-.19-.1-.04-.22-.06-.33-.06-.11,0-.22.02-.33.07-.1.04-.2.11-.28.19l-.35.35v-2.3c0-.23-.09-.44-.25-.6-.16-.16-.38-.25-.6-.25ZM8.5.04c.32.07.62.23.85.46l3.75,3.75c.23.23.39.53.46.85h-5.06V.04Z"/>
  </g>
</svg>