
<svg    viewBox="0 0 22.29 15.55">

  <path  fill="#fff" fill-rule="evenodd" d="m15.04,6.28c.71-.4,1.5-.65,2.29-.72-.23-1.2-1.29-2.1-2.56-2.1h-2.61v-.87c0-1.43-1.17-2.59-2.61-2.59h-1.73c-1.44,0-2.61,1.16-2.61,2.59v.87h-2.61c-1.44,0-2.6,1.16-2.6,2.59v6.91c0,1.43,1.16,2.59,2.6,2.59h12.05c-1.42-.99-2.35-2.64-2.35-4.5,0-1.96,1.05-3.79,2.74-4.77Zm-4.62-2.82h-3.47v-.87c0-.47.39-.86.87-.86h1.73c.48,0,.87.39.87.86v.87Zm5.02,7.02h1.79v-1.79c0-.14.06-.27.15-.36v-1.77c-.62.06-1.24.25-1.84.59-1.39.8-2.24,2.29-2.24,3.9,0,.82.21,1.57.57,2.2.15.26.31.5.5.72.1.11.2.21.3.31.21.2.43.38.67.54.23.15.47.27.73.38.62-.35,1.08-.95,1.24-1.66-.05-.08-.08-.18-.08-.28v-1.78h-1.79c-.28,0-.5-.22-.5-.5s.22-.5.5-.5Z"/>
  <path  fill="#fff" d="m17.79,6.54c-.14,0-.27.01-.41.02-.62.06-1.24.25-1.84.59-1.39.8-2.24,2.29-2.24,3.9,0,.82.21,1.57.57,2.2.15.26.31.5.5.72.1.11.2.21.3.31.21.2.43.38.67.54.23.15.47.27.73.38.54.23,1.13.35,1.73.35.75,0,1.52-.19,2.24-.61,1.39-.8,2.25-2.29,2.25-3.89,0-2.63-2.15-4.51-4.5-4.51Zm2.22,4.94h-1.78v1.78c0,.28-.23.5-.5.5-.18,0-.33-.09-.42-.22-.05-.08-.08-.18-.08-.28v-1.78h-1.79c-.28,0-.5-.22-.5-.5s.22-.5.5-.5h1.79v-1.79c0-.14.06-.27.15-.36s.21-.14.35-.14c.27,0,.5.23.5.5v1.79h1.78c.28,0,.5.22.5.5s-.22.5-.5.5Z"/>
</svg>