<?xml version="1.0" encoding="UTF-8"?>
<svg id="Capa_2" data-name="Capa 2" xmlns="http://www.w3.org/2000/svg" viewBox="0 0 53 53">
  <defs>
    <style>
      .cls-1 {
        fill: #cfd5e6;
        fill-rule: evenodd;
      }
    </style>
  </defs>
  <g id="Capa_2-2" data-name="Capa 2">
    <path class="cls-1" d="m0,26.5C0,14.01,0,7.76,3.88,3.88S14.01,0,26.5,0s18.74,0,22.62,3.88c3.88,3.88,3.88,10.13,3.88,22.62s0,18.74-3.88,22.62c-3.88,3.88-10.13,3.88-22.62,3.88s-18.74,0-22.62-3.88c-3.88-3.88-3.88-10.13-3.88-22.62Zm26.5,15.24c1.1,0,1.99-.89,1.99-1.99v-13.75l4.56,4.56c.78.78,2.03.78,2.81,0,.78-.78.78-2.03,0-2.81l-7.95-7.95c-.37-.37-.88-.58-1.41-.58s-1.03.21-1.41.58l-7.95,7.95c-.78.78-.78,2.03,0,2.81.78.78,2.03.78,2.81,0l4.56-4.56v13.75c0,1.1.89,1.99,1.99,1.99ZM15.9,15.24c-1.1,0-1.99-.89-1.99-1.99s.89-1.99,1.99-1.99h21.2c1.1,0,1.99.89,1.99,1.99s-.89,1.99-1.99,1.99H15.9Z"/>
  </g>
</svg>