<?xml version="1.0" encoding="UTF-8"?>
<svg width="20" id="Capa_2" data-name="Capa 2" xmlns="http://www.w3.org/2000/svg" viewBox="0 0 18 20">
  <defs>
    <style>
      .cls-1 {
        fill: #fff;
      }
    </style>
  </defs>
  <g id="Capa_1-2" data-name="Capa 1">
    <path class="cls-1" d="m5.14,0c.53,0,.96.42.96.94v1.56h5.79V.94c0-.52.43-.94.96-.94s.96.42.96.94v1.56h1.61c1.42,0,2.57,1.12,2.57,2.5v12.5c0,1.38-1.15,2.5-2.57,2.5H2.57c-1.42,0-2.57-1.12-2.57-2.5V5c0-1.38,1.15-2.5,2.57-2.5h1.61V.94c0-.52.43-.94.96-.94Zm10.93,7.5H1.93v10c0,.34.29.62.64.62h12.86c.35,0,.64-.28.64-.62V7.5Zm-2.85,4.1l-4.5,4.38c-.38.37-.99.37-1.36,0l-2.57-2.5c-.38-.37-.38-.96,0-1.32.38-.36.99-.37,1.36,0l1.89,1.84,3.82-3.71c.38-.37.99-.37,1.36,0,.37.37.38.96,0,1.32h0Z"/>
  </g>
</svg>