<?xml version="1.0" encoding="UTF-8"?>
<svg id="Capa_1" data-name="Capa 1" xmlns="http://www.w3.org/2000/svg" viewBox="0 0 22.29 14.9">
  <defs>
    <style>
      .cls-1 {
        fill: #fff;
      }
    </style>
  </defs>
  <path class="cls-1" d="m12.3,10.4c0,1.2.38,2.3,1.04,3.2H1.63c-.09,0-.17.03-.23.09-.06.06-.1.15-.1.23v.33c0,.17-.07.34-.19.46s-.29.19-.46.19-.34-.07-.46-.19-.19-.29-.19-.46v-4.57c0-.64.18-1.26.53-1.79.35-.53.84-.95,1.43-1.21.41-.18.85-.27,1.3-.27h10.76c-1.08,1.02-1.72,2.46-1.72,3.99Z"/>
  <path class="cls-1" d="m18.29,9.68v.15h-.06v-.72c.04.19.06.38.06.57Z"/>
  <path class="cls-1" d="m18.29,10.83v3.42c0,.17-.07.34-.19.46-.11.11-.25.17-.4.19h-.06c-.05,0-.09,0-.13-.01h-.01c-.12-.03-.24-.09-.33-.18-.12-.12-.19-.29-.19-.46v-.33c0-.08-.03-.17-.09-.23s-.15-.09-.23-.09h-2.02c-.09-.09-.18-.18-.27-.28-.15-.18-.29-.37-.41-.57-.42-.67-.66-1.47-.66-2.35,0-1.61.85-3.09,2.24-3.9.02,0,.04-.02.06-.03.25.03.5.11.73.21.47.21.88.52,1.2.91-.18.07-.3.25-.3.46v1.78h-1.79c-.28,0-.5.23-.5.5s.22.5.5.5h1.79v1.79c0,.27.22.5.5.5s.5-.23.5-.5v-1.79h.06Z"/>
  <path class="cls-1" d="m17,2.5v2.45c-.62.09-1.22.29-1.79.6-.04-.35-.21-.67-.47-.9s-.6-.36-.95-.36h-2.5c-.35,0-.69.13-.95.36-.27.24-.43.56-.47.91-.01.04-.03.08-.06.11-.03.03-.08.05-.12.04h-1.09s-.09-.01-.12-.04c-.03-.03-.05-.07-.06-.11-.04-.35-.21-.68-.47-.91s-.6-.36-.95-.36h-2.5c-.35,0-.69.13-.95.36s-.43.56-.47.91c0,.04-.02.08-.06.11-.03.03-.07.05-.12.04h-.19c-.4,0-.81.06-1.2.18-.02,0-.05.01-.08,0-.02,0-.05-.02-.07-.03-.02-.02-.04-.04-.05-.07-.02-.02-.02-.05-.02-.08v-3.21c0-.66.26-1.3.73-1.77.47-.47,1.1-.73,1.77-.73h10.71c.66,0,1.3.26,1.77.73s.73,1.11.73,1.77Z"/>
  <path class="cls-1" d="m21.48,7.82c-.17-.24-.36-.46-.56-.66-.83-.8-1.95-1.27-3.13-1.27-.73,0-1.48.18-2.19.58-.02.01-.04.02-.06.03-1.39.81-2.24,2.29-2.24,3.9,0,.88.24,1.68.66,2.35.12.2.26.39.41.57.09.1.18.19.27.28.01.01.02.02.03.03.21.2.43.38.67.54.12.08.25.15.38.21.25.14.52.25.79.33.32.1.65.16.99.18h.01s.08.01.13.01h.16c.75,0,1.52-.19,2.24-.61,1.39-.8,2.25-2.28,2.25-3.89,0-.99-.3-1.87-.81-2.58Zm-1.47,3.01h-1.78v1.79c0,.27-.23.5-.5.5s-.5-.23-.5-.5v-1.79h-1.79c-.28,0-.5-.22-.5-.5s.22-.5.5-.5h1.79v-1.78c0-.21.12-.39.3-.46.06-.03.13-.04.2-.04.27,0,.5.22.5.5v1.78h1.78c.28,0,.5.23.5.5s-.22.5-.5.5Z"/>
</svg>