<?xml version="1.0" encoding="UTF-8"?>
<svg width="18" id="Capa_2" data-name="Capa 2" xmlns="http://www.w3.org/2000/svg" viewBox="0 0 20 15.71">
  <defs>
    <style>
      .cls-1 {
        fill: #fff;
      }
    </style>
  </defs>
  <g id="Capa_1-2" data-name="Capa 1">
    <path class="cls-1" d="m17.86,6.73c-.45-.2-.94-.3-1.43-.3H3.57c-.49,0-.98.1-1.43.3-.64.28-1.18.74-1.56,1.32C.2,8.62,0,9.3,0,10v5c0,.19.08.37.21.51.13.13.32.21.51.21s.37-.08.51-.21c.13-.13.21-.32.21-.51v-.36c0-.09.04-.18.11-.25.07-.07.16-.1.25-.11h16.43c.09,0,.18.04.25.11.07.07.1.16.11.25v.36c0,.19.08.37.21.51.13.13.32.21.51.21s.37-.08.51-.21c.13-.13.21-.32.21-.51v-5c0-.69-.2-1.37-.58-1.96-.38-.58-.92-1.04-1.56-1.32Z"/>
    <path class="cls-1" d="m15.36,0H4.64c-.66,0-1.3.26-1.77.73-.47.47-.73,1.1-.73,1.77v3.21s0,.05.02.08c.01.02.03.05.05.06.02.02.05.03.08.03.03,0,.06,0,.08,0,.39-.11.79-.17,1.2-.17h.19s.09-.02.12-.04c.03-.03.05-.07.06-.11.04-.35.21-.67.47-.91.26-.23.6-.36.95-.36h2.5c.35,0,.69.13.95.36.26.23.43.56.47.91,0,.04.03.08.06.11.03.03.08.05.12.04h1.09s.09-.02.12-.04c.03-.03.05-.07.06-.11.04-.35.2-.67.47-.91.26-.23.6-.36.95-.36h2.5c.35,0,.69.13.95.36.26.23.43.56.47.91,0,.04.03.08.06.11.03.03.08.05.12.04h.19c.41,0,.81.06,1.2.17.03,0,.05,0,.08,0,.03,0,.05-.02.08-.03.02-.02.04-.04.05-.06.01-.02.02-.05.02-.08v-3.21c0-.66-.26-1.3-.73-1.77-.47-.47-1.1-.73-1.77-.73Z"/>
  </g>
</svg>