<?xml version="1.0" encoding="UTF-8"?>
<svg width="20" id="Capa_2" data-name="Capa 2" xmlns="http://www.w3.org/2000/svg" viewBox="0 0 16 17">
  <defs>
    <style>
      .cls-1 {
        fill: #fff;
      }
    </style>
  </defs>
  <g id="Capa_1-2" data-name="Capa 1">
    <path class="cls-1" d="m9,3.63v8.06c0,.59-.45,1.06-1,1.06s-1-.47-1-1.06V3.63l-2.29,2.44c-.39.42-1.03.42-1.42,0-.39-.42-.39-1.09,0-1.5L7.29.31c.39-.42,1.03-.42,1.42,0l4,4.25c.39.42.39,1.09,0,1.5-.39.42-1.02.42-1.42,0l-2.29-2.44ZM2,11.69h4c0,1.17.9,2.13,2,2.13s2-.95,2-2.13h4c1.1,0,2,.95,2,2.13v1.06c0,1.17-.9,2.13-2,2.13H2c-1.1,0-2-.95-2-2.13v-1.06c0-1.17.9-2.13,2-2.13Zm11.5,3.45c.2,0,.39-.08.53-.23.14-.15.22-.35.22-.56s-.08-.41-.22-.56c-.14-.15-.33-.23-.53-.23s-.39.08-.53.23c-.14.15-.22.35-.22.56s.08.41.22.56c.14.15.33.23.53.23Z"/>
  </g>
</svg>