
<svg viewBox="0 0 20.46 15.55">

  <path class="cls-1" fill="#fff" d="m15.2.35c-.24-.23-.51-.35-.82-.35H1.16c-.31,0-.58.12-.81.35s-.35.51-.35.82v13.22c0,.31.11.58.35.81.23.24.5.35.81.35h11.66c-1.26-.88-2.13-2.27-2.31-3.87v1.68h-.97v-5.17c-.42-.17-.74-.48-.97-.94-.24-.45-.35-1.01-.35-1.67,0-.74.17-1.35.52-1.84.35-.5.8-.74,1.34-.74s1,.24,1.35.74c.36.49.54,1.1.54,1.84,0,.62-.13,1.17-.39,1.64-.26.46-.62.79-1.07.97v2.22c.2-1.71,1.19-3.25,2.7-4.12.73-.42,1.53-.67,2.34-.73V1.17c0-.31-.12-.58-.35-.82ZM6.95,6.44c0,.37-.13.71-.39,1-.27.29-.59.46-.97.51v5.41h-.97v-5.41c-.39-.05-.71-.22-.97-.51-.26-.29-.39-.63-.39-1v-3c0-.13.04-.23.13-.32.08-.08.19-.12.32-.12s.23.04.32.12c.08.09.13.19.13.32v2.34h.56v-2.34c0-.13.04-.23.13-.32.08-.08.19-.12.32-.12s.23.04.32.12c.08.09.12.19.12.32v2.34h.43v-2.34c0-.13.04-.23.13-.32.08-.08.19-.12.32-.12s.24.04.33.12c.09.09.13.19.13.32v3Zm6.66,4.04h1.79v-1.78c0-.14.06-.27.15-.37v-1.77c-.62.06-1.24.25-1.84.59-1.39.81-2.24,2.29-2.24,3.9,0,.82.21,1.57.57,2.2.15.26.31.5.5.72.1.11.2.21.3.31.21.2.43.38.67.54.43.27.9.48,1.4.59.1-.05.2-.12.29-.21.23-.23.35-.5.35-.81v-.76c-.09-.09-.15-.22-.15-.36v-1.79h-1.79c-.28,0-.5-.22-.5-.5s.22-.5.5-.5Z"/>
  
    <path class="cls-1" fill="#fff" d="m15.96,6.54c-.14,0-.27.01-.41.02-.62.06-1.24.25-1.84.59-1.39.81-2.24,2.29-2.24,3.9,0,.82.21,1.57.57,2.2.15.26.31.5.5.72.1.11.2.21.3.31.21.2.43.38.67.54.43.27.9.48,1.4.59.34.1.7.14,1.06.14.75,0,1.52-.19,2.24-.61,1.39-.8,2.25-2.28,2.25-3.89,0-2.63-2.15-4.51-4.5-4.51Zm2.22,4.94h-1.78v1.79c0,.27-.23.5-.5.5-.14,0-.26-.05-.35-.14s-.15-.22-.15-.36v-1.79h-1.79c-.28,0-.5-.22-.5-.5s.22-.5.5-.5h1.79v-1.78c0-.14.06-.27.15-.37.09-.08.21-.13.35-.13.27,0,.5.22.5.5v1.78h1.78c.28,0,.5.23.5.5s-.22.5-.5.5Z"/>
    <path class="cls-2" fill="#253675" d="m10.47,11.05c0,.21.01.42.04.63v-1.27c-.03.21-.04.43-.04.64Z"/>
 
</svg>