<?xml version="1.0" encoding="UTF-8"?>
<svg width="18" id="Capa_2" data-name="Capa 2" xmlns="http://www.w3.org/2000/svg" viewBox="0 0 17 17">
  <defs>
    <style>
      .cls-1 {
        fill: #fff;
      }
    </style>
  </defs>
  <g id="Capa_1-2" data-name="Capa 1">
    <path class="cls-1" d="m5.06,14.6h1.06v-5.91c.41-.06.76-.24,1.05-.56.29-.32.44-.68.44-1.09v-3.27c0-.14-.05-.26-.15-.35-.1-.09-.22-.14-.36-.14s-.26.05-.35.14c-.09.09-.14.21-.14.35v2.55h-.47v-2.55c0-.14-.05-.26-.14-.35-.09-.09-.21-.14-.35-.14s-.26.05-.35.14c-.09.09-.14.21-.14.35v2.55h-.62v-2.55c0-.14-.05-.26-.14-.35-.09-.09-.21-.14-.35-.14s-.26.05-.35.14c-.09.09-.14.21-.14.35v3.27c0,.41.14.78.42,1.09.28.32.64.51,1.06.56v5.91Zm5.38,0h1.06v-5.65c.5-.2.89-.55,1.17-1.06.28-.51.43-1.11.43-1.78,0-.81-.19-1.48-.58-2.02-.39-.54-.88-.81-1.48-.81s-1.08.27-1.47.81c-.38.54-.57,1.21-.57,2.02,0,.72.13,1.33.38,1.83s.61.84,1.06,1.02v5.65Zm-9.16,2.4c-.34,0-.64-.13-.89-.38-.25-.26-.38-.55-.38-.89V1.27c0-.34.13-.64.38-.89s.55-.38.89-.38h14.45c.34,0,.64.13.89.38.25.25.38.55.38.89v14.45c0,.34-.13.64-.38.89-.26.25-.55.38-.89.38H1.27Z"/>
  </g>
</svg>