<?xml version="1.0" encoding="UTF-8"?>
<svg id="Capa_2" data-name="Capa 2" xmlns="http://www.w3.org/2000/svg" viewBox="0 0 33 29">
  <defs>
    <style>
      .cls-1 {
        fill: #fff;
      }
    </style>
  </defs>
  <g id="Capa_2-2" data-name="Capa 2">
    <path class="cls-1" d="m32.53,23.79L19.65,1.77c-1.41-2.36-4.88-2.36-6.29,0L.47,23.79c-.63,1.06-.63,2.38,0,3.44.65,1.11,1.85,1.78,3.15,1.77h25.77c1.29.01,2.5-.66,3.14-1.77.63-1.06.63-2.38,0-3.44ZM15.32,11.6c0-.89.98-1.45,1.77-1,.36.21.59.59.59,1v5.8c0,.89-.98,1.45-1.77,1-.36-.21-.59-.59-.59-1v-5.8Zm1.18,12.76c-1.36,0-2.21-1.45-1.53-2.61.68-1.16,2.38-1.16,3.06,0,.16.26.24.56.24.87,0,.96-.79,1.74-1.77,1.74Z"/>
  </g>
</svg>