<?xml  version="1.0" encoding="UTF-8"?>
<svg width="20" id="Capa_2" data-name="Capa 2" xmlns="http://www.w3.org/2000/svg" viewBox="0 0 18 18">
  <defs>
    <style>
      .cls-1 {
        fill: #fff;
      }
    </style>
  </defs>
  <g id="Capa_1-2" data-name="Capa 1">
    <path class="cls-1" d="m2.42,18h-1.38c-.28,0-.54-.09-.73-.26-.19-.17-.3-.4-.3-.64v-5.4c0-.24.11-.47.3-.64.19-.17.46-.26.73-.26h1.38c.28,0,.54.09.73.26.19.17.3.4.3.64v5.4c0,.24-.11.47-.3.64-.19.17-.46.26-.73.26Z"/>
    <path class="cls-1" d="m12.12,18h-1.38c-.28,0-.54-.09-.73-.26-.19-.17-.3-.4-.3-.64v-9c0-.24.11-.47.3-.64.19-.17.46-.26.73-.26h1.38c.28,0,.54.09.73.26.19.17.3.4.3.64v9c0,.24-.11.47-.3.64-.19.17-.46.26-.73.26Z"/>
    <path class="cls-1" d="m16.96,18h-1.38c-.28,0-.54-.09-.73-.26-.19-.17-.3-.4-.3-.64V3.9c0-.24.11-.47.3-.64.19-.17.46-.26.73-.26h1.38c.28,0,.54.09.73.26.19.17.3.4.3.64v13.2c0,.24-.11.47-.3.64-.19.17-.46.26-.73.26Z"/>
    <path class="cls-1" d="m7.27,18h-1.38c-.28,0-.54-.09-.73-.26-.19-.17-.3-.4-.3-.64V.9c0-.24.11-.47.3-.64.19-.17.46-.26.73-.26h1.38c.28,0,.54.09.73.26.19.17.3.4.3.64v16.2c0,.24-.11.47-.3.64-.19.17-.46.26-.73.26Z"/>
  </g>
</svg>