<?xml version="1.0" encoding="UTF-8"?>
<svg width="18" id="Capa_2" data-name="Capa 2" xmlns="http://www.w3.org/2000/svg" viewBox="0 0 14 17">
  <defs>
    <style>
      .cls-1 {
        fill: #fff;
        fill-rule: evenodd;
      }
    </style>
  </defs>
  <g id="Capa_1-2" data-name="Capa 1">
    <path class="cls-1" d="m6.61,16.88l.06.03h.02c.19.12.42.12.61.01h.02s.06-.05.06-.05c.33-.19.66-.4.97-.62.82-.57,1.58-1.21,2.28-1.91,1.65-1.67,3.36-4.18,3.36-7.41C14,1.6,8.17-1.73,3.5.94,1.33,2.17,0,4.46,0,6.93c0,3.23,1.71,5.74,3.36,7.41.7.7,1.46,1.35,2.28,1.91.32.22.64.43.97.62Zm.39-7.43c1.96,0,3.19-2.09,2.21-3.77-.45-.78-1.3-1.26-2.21-1.26-1.96,0-3.18,2.1-2.2,3.78.45.78,1.29,1.25,2.2,1.25Z"/>
  </g>
</svg>