
<svg  viewBox="0 0 19.55 15.55">

  <path class="cls-2" fill="#fff" fill-rule="evenodd" d="m10.56,11.05c0,.35.04.68.11,1,1.02-1.28,1.9-2.92,2.09-4.88-1.37.81-2.2,2.29-2.2,3.88ZM3.2.86C1.22,1.99,0,4.08,0,6.34c0,2.95,1.57,5.25,3.08,6.78.64.64,1.33,1.23,2.08,1.75.29.2.58.39.89.57l.05.03h.02c.18.1.39.1.56.01h.03s.05-.04.05-.04c.3-.18.6-.37.89-.57.74-.52,1.44-1.11,2.08-1.75.06-.06.12-.12.17-.18-.22-.59-.34-1.23-.34-1.89,0-1.96,1.05-3.79,2.74-4.77.16-.09.33-.17.49-.25C12.58,1.34,7.38-1.53,3.2.86Zm3.2,7.78c-.83,0-1.59-.43-2.01-1.14-.9-1.54.22-3.46,2.01-3.46.84,0,1.61.44,2.03,1.15.89,1.54-.23,3.46-2.03,3.45Z"/>
  <path class="cls-1"  fill=#fff d="m18.74,8.47c-.17-.24-.36-.46-.56-.66-.83-.8-1.95-1.27-3.13-1.27-.75,0-1.52.19-2.25.61-.01.01-.03.02-.04.02-1.37.81-2.2,2.29-2.2,3.88,0,.35.04.68.11,1,.11.49.29.94.55,1.35.12.2.26.39.41.57.1.11.2.21.3.31.21.2.43.38.67.54.12.08.25.15.38.21.25.14.52.25.79.33.42.12.85.19,1.29.19.75,0,1.52-.19,2.24-.61,1.39-.8,2.25-2.29,2.25-3.89,0-.99-.3-1.87-.81-2.58Zm-1.47,3.01h-1.78v1.79c0,.27-.23.5-.5.5s-.5-.23-.5-.5v-1.79h-1.79c-.28,0-.5-.22-.5-.5s.22-.5.5-.5h1.79v-1.79c0-.27.22-.5.5-.5s.5.23.5.5v1.79h1.78c.28,0,.5.22.5.5s-.22.5-.5.5Z"/>
</svg>