<?xml version="1.0" encoding="UTF-8"?>
<svg width="18" id="Capa_2" data-name="Capa 2" xmlns="http://www.w3.org/2000/svg" viewBox="0 0 14 17">
  <defs>
    <style>
      .cls-1 {
        fill: #fff;
      }
    </style>
  </defs>
  <g id="Capa_1-2" data-name="Capa 1">
    <path class="cls-1" d="m1.75,0C.78,0,0,.71,0,1.59v13.81c0,.88.78,1.59,1.75,1.59h3.5v-2.66c0-.88.78-1.59,1.75-1.59s1.75.71,1.75,1.59v2.66h3.5c.97,0,1.75-.71,1.75-1.59V1.59c0-.88-.78-1.59-1.75-1.59H1.75Zm.58,7.97c0-.29.26-.53.58-.53h1.17c.32,0,.58.24.58.53v1.06c0,.29-.26.53-.58.53h-1.17c-.32,0-.58-.24-.58-.53v-1.06Zm4.08-.53h1.17c.32,0,.58.24.58.53v1.06c0,.29-.26.53-.58.53h-1.17c-.32,0-.58-.24-.58-.53v-1.06c0-.29.26-.53.58-.53Zm2.92.53c0-.29.26-.53.58-.53h1.17c.32,0,.58.24.58.53v1.06c0,.29-.26.53-.58.53h-1.17c-.32,0-.58-.24-.58-.53v-1.06ZM2.92,3.19h1.17c.32,0,.58.24.58.53v1.06c0,.29-.26.53-.58.53h-1.17c-.32,0-.58-.24-.58-.53v-1.06c0-.29.26-.53.58-.53Zm2.92.53c0-.29.26-.53.58-.53h1.17c.32,0,.58.24.58.53v1.06c0,.29-.26.53-.58.53h-1.17c-.32,0-.58-.24-.58-.53v-1.06Zm4.08-.53h1.17c.32,0,.58.24.58.53v1.06c0,.29-.26.53-.58.53h-1.17c-.32,0-.58-.24-.58-.53v-1.06c0-.29.26-.53.58-.53Z"/>
  </g>
</svg>