<?xml version="1.0" encoding="UTF-8"?>
<svg id="Capa_2" data-name="Capa 2" xmlns="http://www.w3.org/2000/svg" viewBox="0 0 33 33">
  <defs>
    <style>
      .cls-1 {
        fill: #fff;
        fill-rule: evenodd;
      }
    </style>
  </defs>
  <g id="Capa_2-2" data-name="Capa 2">
    <path class="cls-1" d="m33,16.5c0,9.11-7.39,16.5-16.5,16.5S0,25.61,0,16.5,7.39,0,16.5,0s16.5,7.39,16.5,16.5Zm-21.5-5c.48-.48,1.27-.48,1.75,0l3.25,3.25,3.25-3.25c.48-.48,1.27-.48,1.75,0,.48.48.48,1.27,0,1.75l-3.25,3.25,3.25,3.25c.48.48.48,1.27,0,1.75-.48.48-1.27.48-1.75,0l-3.25-3.25-3.25,3.25c-.48.48-1.27.48-1.75,0-.48-.48-.48-1.27,0-1.75l3.25-3.25-3.25-3.25c-.48-.48-.48-1.27,0-1.75Z"/>
  </g>
</svg>