<?xml version="1.0" encoding="UTF-8"?>
<svg id="Capa_2" data-name="Capa 2" xmlns="http://www.w3.org/2000/svg" viewBox="0 0 15.5 15.5">
  <defs>
    <style>
      .cls-1 {
        fill: #fff;
      }
    </style>
  </defs>
  <g id="Capa_2-2" data-name="Capa 2">
    <g>
      <rect class="cls-1" x="4" y="9" width="7.5" height="6.5"/>
      <path class="cls-1" d="m15.5,4.29v10.07c0,.3-.13.6-.34.81s-.5.33-.8.33h-1.36v-7.25c0-.41-.34-.75-.75-.75H3.25c-.42,0-.75.34-.75.75v7.25h-1.37c-.3,0-.59-.12-.8-.33-.21-.21-.33-.51-.33-.81V1.14c0-.3.11-.59.33-.8.21-.22.5-.34.8-.34h1.14v3.97c0,.42.34.75.75.75h7.56c.41,0,.75-.33.75-.75s-.34-.75-.75-.75H3.77V0h7.44l4.29,4.29Z"/>
    </g>
  </g>
</svg>