
<svg  viewBox="0 0 19.55 15.55">
 
  <path class="cls-1" fill="#fff" d="m12.34.48c-.3-.31-.71-.48-1.13-.48H1.6c-.42,0-.83.17-1.13.48-.3.32-.47.74-.47,1.18v11.11c0,.23.05.47.14.68.09.21.23.4.39.56v.63c0,.24.1.47.26.64.16.17.38.27.61.27h.93c.23,0,.46-.1.62-.27.16-.17.25-.4.25-.64v-.2h6.4v.2c0,.24.1.47.26.64.16.17.38.27.61.27h.94c.13,0,.26-.03.37-.1-.91-.67-1.61-1.63-1.96-2.74-.16-.05-.31-.14-.44-.27-.17-.18-.28-.41-.3-.66-.03-.23.02-.46.13-.66.08-.16.21-.3.36-.39.03-.64.18-1.27.43-1.85h-2.93s-.07-.01-.09-.04c-.03-.03-.04-.06-.04-.1V2.55s.01-.07.04-.1c.02-.02.05-.04.09-.04h4.14c.14,0,.27.06.37.17.1.1.16.24.16.39v3.69c.18-.14.36-.27.56-.38.17-.1.34-.18.51-.26V1.66c0-.44-.17-.86-.47-1.18ZM3.42,12.44c-.17.18-.39.29-.64.32-.22.03-.44-.02-.63-.13s-.35-.28-.44-.49c-.1-.21-.13-.44-.09-.67.03-.23.14-.43.29-.6.16-.16.36-.27.58-.31.22-.03.44,0,.64.1.2.1.36.26.47.46.11.2.15.43.13.66-.03.25-.13.48-.31.66Zm2.45-3.7s-.01.07-.04.1c-.02.03-.06.04-.09.04H1.6c-.14,0-.28-.06-.38-.16-.1-.1-.15-.25-.15-.39V2.97c0-.15.05-.29.15-.39.1-.11.24-.17.38-.17h4.14s.07.02.09.04c.03.03.04.07.04.1v6.19Zm6.83,1.74h.11v-3.34s-.01,0-.01,0c-.41.23-.76.52-1.06.86v.32c0,.14-.06.29-.16.39s-.23.16-.37.16h-.09c-.31.54-.49,1.14-.53,1.77.11.05.22.13.3.22.16.17.26.37.3.6.04.23.01.46-.09.67-.07.15-.17.28-.29.38.08.26.19.5.32.73.15.26.31.49.5.71.1.12.19.22.3.32.08.08.17.16.26.23.02.03.05.05.08.07v-.57c.17-.16.3-.35.4-.56.09-.21.14-.45.14-.68v-1.29h-.11c-.28,0-.5-.23-.5-.5s.22-.5.5-.5Z"/>
  
    <path class="cls-1" fill="#fff" d="m18.98,8.84c-.14-.26-.31-.5-.5-.72-.1-.11-.2-.21-.3-.31-.21-.2-.43-.38-.67-.54-.73-.47-1.58-.73-2.46-.73-.75,0-1.51.19-2.24.6,0,0-.01,0-.01,0-.41.23-.76.52-1.06.86-.25.26-.46.56-.62.87-.31.54-.49,1.14-.53,1.77-.02.13-.03.26-.03.39,0,.53.09,1.02.25,1.48.08.26.19.5.32.73.15.26.31.49.5.71.1.12.19.22.3.32.08.08.17.16.26.23.02.03.05.05.08.07.22.17.46.32.71.45.25.14.52.25.79.33.42.12.85.19,1.29.19.19,0,.38-.01.57-.04.18-.02.37-.06.56-.11.19-.05.38-.12.56-.19.19-.08.37-.17.55-.27,1.39-.81,2.25-2.29,2.25-3.9,0-.82-.21-1.57-.57-2.2Zm-1.71,2.64h-1.78v1.78c0,.28-.23.5-.5.5s-.5-.22-.5-.5v-1.78h-1.79c-.28,0-.5-.23-.5-.5s.22-.5.5-.5h1.79v-1.79c0-.28.22-.5.5-.5s.5.22.5.5v1.79h1.78c.28,0,.5.22.5.5s-.22.5-.5.5Z"/>
    <path class="cls-2" fill="#253675" d="m12.19,14.51s.05.05.08.07h0s-.06-.05-.08-.07Z"/>
  
</svg>