<?xml version="1.0" encoding="UTF-8"?>
<svg width="18" id="Capa_2" data-name="Capa 2" xmlns="http://www.w3.org/2000/svg" viewBox="0 0 14 17">
  <defs>
    <style>
      .cls-1 {
        fill: #fff;
      }
    </style>
  </defs>
  <g id="Capa_1-2" data-name="Capa 1">
    <path class="cls-1" d="m12.25,0H1.75c-.46,0-.91.19-1.24.53-.33.34-.51.8-.51,1.29v12.14c0,.26.05.51.15.74.1.23.25.44.43.61v.69c0,.26.1.51.28.7.18.19.42.29.67.29h1.02c.25,0,.49-.1.67-.29.18-.19.28-.44.28-.7v-.23h7v.23c0,.26.1.51.28.7.18.19.42.29.67.29h1.02c.25,0,.49-.1.67-.29.18-.19.28-.44.28-.7v-.69c.18-.17.33-.38.43-.61.1-.23.15-.49.15-.74V1.82c0-.48-.18-.95-.51-1.29-.33-.34-.77-.53-1.24-.53ZM3.04,13.96c-.24.03-.48-.02-.69-.15-.21-.12-.38-.31-.48-.54-.1-.23-.14-.48-.1-.73.04-.25.15-.48.33-.65.17-.18.39-.3.63-.34.24-.04.48,0,.7.1.22.11.4.28.52.5.12.22.17.47.14.72-.03.28-.15.53-.33.73-.19.2-.43.32-.7.35Zm3.23-4.24H1.75c-.15,0-.3-.06-.41-.18-.11-.11-.17-.27-.17-.43V3.25c0-.16.06-.32.17-.43.11-.11.26-.18.41-.18h4.52s.08.02.1.04c.03.03.04.07.04.11v6.77s-.02.08-.04.11c-.03.03-.06.04-.1.04Zm1.46-7.07h4.52c.15,0,.3.06.41.18.11.11.17.27.17.43v5.86c0,.16-.06.32-.17.43-.11.11-.26.18-.41.18h-4.52s-.08-.02-.1-.04c-.03-.03-.04-.07-.04-.11V2.79s.02-.08.04-.11c.03-.03.06-.04.1-.04Zm2.19,10.24c-.03-.25.02-.5.14-.72.12-.22.3-.4.52-.5.22-.11.46-.14.7-.1.24.04.46.16.63.34.17.18.28.41.33.65.04.25,0,.5-.1.73-.1.23-.27.41-.48.54s-.45.17-.69.15c-.26-.03-.51-.15-.7-.35-.19-.2-.31-.45-.33-.73Z"/>
  </g>
</svg>