<?xml version="1.0" encoding="UTF-8"?>
<svg id="Capa_2" data-name="Capa 2" xmlns="http://www.w3.org/2000/svg" viewBox="0 0 32.85 32.85">
  <defs>
    <style>
      .cls-1 {
        fill: #fff;
        fill-rule: evenodd;
      }
    </style>
  </defs>
  <g id="Capa_2-2" data-name="Capa 2">
    <path class="cls-1" d="m16.42,32.85c-7.74,0-11.61,0-14.02-2.41S0,24.17,0,16.42,0,4.81,2.41,2.41C4.81,0,8.68,0,16.42,0s11.61,0,14.02,2.41c2.41,2.41,2.41,6.28,2.41,14.02s0,11.61-2.41,14.02-6.28,2.41-14.02,2.41Zm4.06-22.31c.53.43.61,1.21.18,1.73l-9.38,11.5c-.23.29-.58.45-.95.45s-.72-.17-.95-.45l-3.75-4.6c-.43-.53-.35-1.3.18-1.73.53-.43,1.3-.35,1.73.18l2.8,3.43,8.43-10.33c.43-.53,1.21-.61,1.73-.18Zm6.57,0c.53.43.61,1.21.18,1.73l-9.39,11.5c-.25.3-.63.47-1.02.45-.39-.02-.75-.23-.97-.56l-.47-.72c-.37-.57-.21-1.33.36-1.7.33-.22.74-.25,1.09-.13l8.49-10.4c.43-.53,1.21-.61,1.73-.18Z"/>
  </g>
</svg>