<?xml version="1.0" encoding="UTF-8"?>
<svg id="Capa_2" data-name="Capa 2" xmlns="http://www.w3.org/2000/svg" viewBox="0 0 17 17">
  <defs>
    <style>
      .cls-1 {
        fill: #fff;
      }
    </style>
  </defs>
  <g id="Capa_2-2" data-name="Capa 2">
    <path class="cls-1" d="m13,0H4C1.79,0,0,1.8,0,4v9c0,2.21,1.79,4,4,4h9c2.21,0,4-1.79,4-4V4c0-2.2-1.79-4-4-4Zm-.07,7.28l-4.73,4.41c-.39.37-1.03.37-1.43,0l-2.7-2.52c-.39-.37-.39-.96,0-1.33.4-.37,1.04-.37,1.43,0l1.99,1.85,4.01-3.74c.39-.37,1.03-.37,1.43,0,.39.37.39.97,0,1.33Z"/>
  </g>
</svg>