
<svg width='20' id="Capa_1" data-name="Capa 1" xmlns="http://www.w3.org/2000/svg" viewBox="0 0 20.46 15.55">

  <path  fill="#fff" d="m7.77,0C3.48,0,0,3.48,0,7.77s3.48,7.78,7.77,7.78c1.43,0,2.77-.39,3.92-1.06-.76-.94-1.22-2.14-1.22-3.45,0-.72.14-1.42.41-2.07h-3.11c-.16,0-.31-.06-.42-.18-.11-.11-.18-.26-.18-.42V2.99c0-.16.07-.31.18-.42.11-.12.26-.18.42-.18s.31.06.42.18c.12.11.18.26.18.42v4.78h2.99c.06,0,.12.01.18.03.43-.61,1-1.13,1.67-1.52.63-.36,1.32-.59,2.03-.69-.95-3.23-3.94-5.59-7.47-5.59Zm7.69,6.57c-.59.06-1.18.25-1.75.58-1.39.8-2.24,2.29-2.24,3.89,0,.82.21,1.57.57,2.21.14.24.3.47.47.68.86-.65,1.58-1.49,2.1-2.45h-1c-.28,0-.5-.23-.5-.5s.22-.5.5-.5h1.46c.14-.38.25-.78.33-1.19v-.6c0-.13.05-.25.13-.34.01-.19.02-.39.02-.58,0-.41-.03-.81-.09-1.2Z"/>
  <path   fill="#fff" d="m19.53,8.32c-.13-.18-.28-.35-.44-.51-.83-.8-1.95-1.27-3.13-1.27-.16,0-.33.01-.5.03-.59.06-1.18.25-1.75.58-1.39.8-2.24,2.29-2.24,3.89,0,.82.21,1.57.57,2.21.14.24.3.47.47.68.1.12.21.24.33.35.21.2.43.38.67.54.12.07.25.15.38.21.25.14.52.25.79.33.42.12.85.19,1.29.19.75,0,1.52-.19,2.24-.61,1.39-.8,2.25-2.29,2.25-3.9,0-1.05-.35-1.99-.93-2.72Zm-1.35,3.16h-1.78v1.78c0,.28-.23.5-.5.5s-.5-.22-.5-.5v-1.78h-1.79c-.28,0-.5-.23-.5-.5s.22-.5.5-.5h1.79v-1.79c0-.13.05-.25.13-.34.09-.1.22-.16.37-.16.27,0,.5.22.5.5v1.79h1.78c.28,0,.5.22.5.5s-.22.5-.5.5Z"/>
</svg>