<?xml version="1.0" encoding="UTF-8"?>
<svg width="18" id="Capa_2" data-name="Capa 2" xmlns="http://www.w3.org/2000/svg" viewBox="0 0 17 17">
  <defs>
    <style>
      .cls-1 {
        fill: #fff;
      }
    </style>
  </defs>
  <g id="Capa_1-2" data-name="Capa 1">
    <path class="cls-1" d="m8.5,0C3.81,0,0,3.81,0,8.5s3.81,8.5,8.5,8.5,8.5-3.81,8.5-8.5S13.19,0,8.5,0Zm3.92,9.81h-3.92c-.17,0-.34-.07-.46-.19-.12-.12-.19-.29-.19-.46V3.27c0-.17.07-.34.19-.46.12-.12.29-.19.46-.19s.34.07.46.19c.12.12.19.29.19.46v5.23h3.27c.17,0,.34.07.46.19.12.12.19.29.19.46s-.07.34-.19.46c-.12.12-.29.19-.46.19Z"/>
  </g>
</svg>