<?xml version="1.0" encoding="UTF-8"?>
<svg id="Capa_2" data-name="Capa 2" xmlns="http://www.w3.org/2000/svg" viewBox="0 0 17 17">
  <defs>
    <style>
      .cls-1 {
        fill: #fff;
      }
    </style>
  </defs>
  <g id="Capa_2-2" data-name="Capa 2">
    <path class="cls-1" d="m8.5,0C3.8,0,0,3.81,0,8.5s3.8,8.5,8.5,8.5,8.5-3.8,8.5-8.5S13.19,0,8.5,0Zm4.42,9.43l-3.82,3.81c-.23.24-.61.24-.85,0-.23-.23-.23-.61,0-.84l2.8-2.8h-7.05c-.33,0-.6-.27-.6-.6s.27-.6.6-.6h7.05l-2.8-2.79c-.23-.24-.23-.62,0-.85.24-.24.62-.24.85,0l3.82,3.82c.24.23.24.61,0,.85Z"/>
  </g>
</svg>