
<svg  viewBox="0 0 20.46 15.55">
 
  <path class="cls-2" fill="#fff" fill-rule="evenodd" d="m15.46,6.57c-.59.06-1.18.25-1.75.58-1.39.8-2.24,2.29-2.24,3.89,0,.06,0,.11.01.17.17.17.31.37.43.58.19.35.15.75-.06,1.07,0,0-.01,0-.01.01.07.13.13.26.2.38.14.24.29.47.47.68.86-.65,1.58-1.49,2.1-2.45h-1c-.28,0-.5-.23-.5-.5s.22-.5.5-.5h1.45c.15-.38.26-.78.34-1.19v-.6c0-.13.05-.24.13-.33.01-.2.02-.39.02-.59,0-.41-.03-.81-.09-1.2ZM7.77,0C3.48,0,0,3.48,0,7.77s3.48,7.78,7.77,7.78c1.43,0,2.76-.38,3.91-1.06-.24-.3-.45-.63-.62-.99-.96.56-2.09.88-3.29.88-1.39,0-2.67-.43-3.74-1.16-.47-.32-.67-.93-.39-1.43.56-1.04,1.73-1.68,4.13-1.68,1.18,0,2.06.15,2.72.44.16-1.76,1.17-3.37,2.72-4.27.63-.36,1.32-.59,2.03-.69-.95-3.23-3.94-5.59-7.47-5.59Zm0,7.77c-1.29,0-2.33-1.04-2.33-2.33s1.04-2.33,2.33-2.33,2.33,1.04,2.33,2.33-1.04,2.33-2.33,2.33Z"/>
  <path class="cls-1" fill="#fff" d="m19.65,8.46c-.17-.23-.36-.45-.56-.65-.83-.8-1.95-1.27-3.13-1.27-.16,0-.33.01-.5.03-.59.06-1.18.25-1.75.58-1.39.8-2.24,2.29-2.24,3.89,0,.06,0,.11.01.17.01.59.15,1.15.36,1.65h.01c.06.14.12.27.19.39.14.24.29.47.47.68.1.12.21.24.33.35.21.2.43.38.67.54.73.47,1.58.73,2.46.73.75,0,1.52-.19,2.24-.61,1.39-.8,2.25-2.29,2.25-3.9,0-.98-.3-1.86-.81-2.58Zm-1.47,3.02h-1.78v1.78c0,.28-.23.5-.5.5s-.5-.22-.5-.5v-1.78h-1.79c-.28,0-.5-.23-.5-.5s.22-.5.5-.5h1.79v-1.79c0-.13.05-.24.13-.33.08-.1.22-.17.37-.17.27,0,.5.22.5.5v1.79h1.78c.28,0,.5.22.5.5s-.22.5-.5.5Z"/>
</svg>