<?xml version="1.0" encoding="UTF-8"?>
<svg width="18" id="Capa_2" data-name="Capa 2" xmlns="http://www.w3.org/2000/svg" viewBox="0 0 17 17">
  <defs>
    <style>
      .cls-1 {
        fill: #fff;
        fill-rule: evenodd;
      }
    </style>
  </defs>
  <g id="Capa_1-2" data-name="Capa 1">
    <path class="cls-1" d="m17,8.5c0,4.69-3.81,8.5-8.5,8.5S0,13.19,0,8.5,3.81,0,8.5,0s8.5,3.81,8.5,8.5Zm-5.95-2.55c0,1.41-1.14,2.55-2.55,2.55s-2.55-1.14-2.55-2.55,1.14-2.55,2.55-2.55,2.55,1.14,2.55,2.55Zm-2.55,9.78c1.52,0,2.92-.47,4.09-1.27.51-.35.73-1.02.43-1.57-.62-1.13-1.89-1.84-4.52-1.84s-3.9.71-4.52,1.84c-.3.55-.08,1.22.43,1.57,1.16.8,2.57,1.27,4.09,1.27Z"/>
  </g>
</svg>